  0
SECTION
  2
HEADER
  9
$EXTMIN
 10
1.549400
 20
2.006600
  9
$EXTMAX
 10
83.286600
 20
37.490400
  9
$LIMMIN
 10
1.549400
 20
2.006600
  9
$LIMMAX
 10
83.286600
 20
37.490400
  9
$FILLMODE
 70
  1
  0
ENDSEC
  0
SECTION
  2
TABLES
  0
TABLE
  2
LTYPE
 70
  1
  0
LTYPE
  2
CONTINUOUS
 70
 64
  3
Solid line
 72
 65
 73
  0
 40
0.0
  0
ENDTAB
  0
TABLE
  2
LAYER
 70
 1
  0
LAYER
  2
0
 70
  0
 62
7
  6
CONTINUOUS
  0
LAYER
  2
txt
 70
  0
 62
1
  6
CONTINUOUS
  0
ENDTAB
  0
TABLE
  2
STYLE
 70
  1
  0
STYLE
  2
STANDARD
 70
  0
 40
0.0
 41
1.0
 50
0.0
 71
  0
 42
0.2
  3
txt
  4

  0
ENDTAB
  0
ENDSEC
  0
SECTION
  2
BLOCKS
  0
BLOCK
  8
0
  2
D9500
 70
64
 10
0.0
 20
0.0
  3
D9500
  0
CIRCLE
  8
0
 10
0.000000
 20
0.000000
 40
0.500000
 0
ENDBLK
  8
0
  0
BLOCK
  8
0
  2
D9501
 70
64
 10
0.0
 20
0.0
  3
D9501
  0
CIRCLE
  8
0
 10
0.000000
 20
0.000000
 40
1.250000
 0
ENDBLK
  8
0
  0
BLOCK
  8
0
  2
D9502
 70
64
 10
0.0
 20
0.0
  3
D9502
  0
CIRCLE
  8
0
 10
0.000000
 20
0.000000
 40
1.500000
 0
ENDBLK
  8
0
  0
BLOCK
  8
0
  2
D9503
 70
64
 10
0.0
 20
0.0
  3
D9503
  0
CIRCLE
  8
0
 10
0.000000
 20
0.000000
 40
0.750000
 0
ENDBLK
  8
0
  0
BLOCK
  8
0
  2
D9504
 70
64
 10
0.0
 20
0.0
  3
D9504
  0
CIRCLE
  8
0
 10
0.000000
 20
0.000000
 40
1.000000
 0
ENDBLK
  8
0
  0
BLOCK
  8
0
  2
D9505
 70
64
 10
0.0
 20
0.0
  3
D9505
  0
CIRCLE
  8
0
 10
0.000000
 20
0.000000
 40
1.500000
 0
ENDBLK
  8
0
  0
ENDSEC
  0
SECTION
  2
ENTITIES
  0
INSERT
  8
txt
  2
D9500
 10
80.000160
 20
19.750040
 41
1.0
 42
1.0
 43
1.0
 50
0.0
  0
INSERT
  8
txt
  2
D9500
 10
42.500085
 20
19.750040
 41
1.0
 42
1.0
 43
1.0
 50
0.0
  0
INSERT
  8
txt
  2
D9500
 10
21.639543
 20
23.906948
 41
1.0
 42
1.0
 43
1.0
 50
0.0
  0
INSERT
  8
txt
  2
D9500
 10
19.479139
 20
29.787960
 41
1.0
 42
1.0
 43
1.0
 50
0.0
  0
INSERT
  8
txt
  2
D9500
 10
16.939134
 20
29.787960
 41
1.0
 42
1.0
 43
1.0
 50
0.0
  0
INSERT
  8
txt
  2
D9500
 10
14.399129
 20
29.787960
 41
1.0
 42
1.0
 43
1.0
 50
0.0
  0
INSERT
  8
txt
  2
D9500
 10
9.988820
 20
24.087948
 41
1.0
 42
1.0
 43
1.0
 50
0.0
  0
INSERT
  8
txt
  2
D9500
 10
9.988820
 20
21.547943
 41
1.0
 42
1.0
 43
1.0
 50
0.0
  0
INSERT
  8
txt
  2
D9500
 10
9.988820
 20
19.007938
 41
1.0
 42
1.0
 43
1.0
 50
0.0
  0
INSERT
  8
txt
  2
D9500
 10
9.988820
 20
16.467933
 41
1.0
 42
1.0
 43
1.0
 50
0.0
  0
INSERT
  8
txt
  2
D9500
 10
9.988820
 20
13.927928
 41
1.0
 42
1.0
 43
1.0
 50
0.0
  0
INSERT
  8
txt
  2
D9500
 10
21.639543
 20
11.906924
 41
1.0
 42
1.0
 43
1.0
 50
0.0
  0
INSERT
  8
txt
  2
D9500
 10
5.000010
 20
19.750040
 41
1.0
 42
1.0
 43
1.0
 50
0.0
  0
INSERT
  8
txt
  2
D9500
 10
9.988820
 20
3.507007
 41
1.0
 42
1.0
 43
1.0
 50
0.0
  0
INSERT
  8
txt
  2
D9500
 10
15.080030
 20
3.500007
 41
1.0
 42
1.0
 43
1.0
 50
0.0
  0
INSERT
  8
txt
  2
D9500
 10
40.676181
 20
8.812718
 41
1.0
 42
1.0
 43
1.0
 50
0.0
  0
INSERT
  8
txt
  2
D9500
 10
52.927506
 20
7.180714
 41
1.0
 42
1.0
 43
1.0
 50
0.0
  0
INSERT
  8
txt
  2
D9500
 10
56.551013
 20
7.180714
 41
1.0
 42
1.0
 43
1.0
 50
0.0
  0
INSERT
  8
txt
  2
D9500
 10
63.077626
 20
8.012616
 41
1.0
 42
1.0
 43
1.0
 50
0.0
  0
INSERT
  8
txt
  2
D9500
 10
70.105940
 20
8.735617
 41
1.0
 42
1.0
 43
1.0
 50
0.0
  0
INSERT
  8
txt
  2
D9500
 10
70.105940
 20
5.060110
 41
1.0
 42
1.0
 43
1.0
 50
0.0
  0
INSERT
  8
txt
  2
D9500
 10
68.922238
 20
2.616105
 41
1.0
 42
1.0
 43
1.0
 50
0.0
  0
INSERT
  8
txt
  2
D9500
 10
72.645945
 20
14.457929
 41
1.0
 42
1.0
 43
1.0
 50
0.0
  0
INSERT
  8
txt
  2
D9500
 10
75.185950
 20
14.457929
 41
1.0
 42
1.0
 43
1.0
 50
0.0
  0
INSERT
  8
txt
  2
D9500
 10
77.725955
 20
14.457929
 41
1.0
 42
1.0
 43
1.0
 50
0.0
  0
INSERT
  8
txt
  2
D9500
 10
82.805966
 20
24.960750
 41
1.0
 42
1.0
 43
1.0
 50
0.0
  0
INSERT
  8
txt
  2
D9500
 10
71.268343
 20
32.575665
 41
1.0
 42
1.0
 43
1.0
 50
0.0
  0
INSERT
  8
txt
  2
D9500
 10
60.007320
 20
24.960750
 41
1.0
 42
1.0
 43
1.0
 50
0.0
  0
INSERT
  8
txt
  2
D9500
 10
60.007320
 20
22.420745
 41
1.0
 42
1.0
 43
1.0
 50
0.0
  0
INSERT
  8
txt
  2
D9500
 10
60.007320
 20
19.880740
 41
1.0
 42
1.0
 43
1.0
 50
0.0
  0
INSERT
  8
txt
  2
D9500
 10
56.551013
 20
19.880740
 41
1.0
 42
1.0
 43
1.0
 50
0.0
  0
INSERT
  8
txt
  2
D9500
 10
56.551013
 20
17.340735
 41
1.0
 42
1.0
 43
1.0
 50
0.0
  0
INSERT
  8
txt
  2
D9500
 10
56.551013
 20
14.800730
 41
1.0
 42
1.0
 43
1.0
 50
0.0
  0
INSERT
  8
txt
  2
D9500
 10
56.551013
 20
12.260725
 41
1.0
 42
1.0
 43
1.0
 50
0.0
  0
INSERT
  8
txt
  2
D9500
 10
56.551013
 20
9.720719
 41
1.0
 42
1.0
 43
1.0
 50
0.0
  0
INSERT
  8
txt
  2
D9500
 10
60.007320
 20
9.720719
 41
1.0
 42
1.0
 43
1.0
 50
0.0
  0
INSERT
  8
txt
  2
D9500
 10
60.007320
 20
14.800730
 41
1.0
 42
1.0
 43
1.0
 50
0.0
  0
INSERT
  8
txt
  2
D9500
 10
56.551013
 20
22.420745
 41
1.0
 42
1.0
 43
1.0
 50
0.0
  0
INSERT
  8
txt
  2
D9500
 10
56.551013
 20
24.960750
 41
1.0
 42
1.0
 43
1.0
 50
0.0
  0
INSERT
  8
txt
  2
D9500
 10
56.547213
 20
27.497955
 41
1.0
 42
1.0
 43
1.0
 50
0.0
  0
INSERT
  8
txt
  2
D9500
 10
48.296197
 20
11.212722
 41
1.0
 42
1.0
 43
1.0
 50
0.0
  0
INSERT
  8
txt
  2
D9500
 10
45.756192
 20
11.212722
 41
1.0
 42
1.0
 43
1.0
 50
0.0
  0
INSERT
  8
txt
  2
D9500
 10
43.216186
 20
11.212722
 41
1.0
 42
1.0
 43
1.0
 50
0.0
  0
INSERT
  8
txt
  2
D9500
 10
40.676181
 20
11.212722
 41
1.0
 42
1.0
 43
1.0
 50
0.0
  0
INSERT
  8
txt
  2
D9500
 10
38.136176
 20
11.212722
 41
1.0
 42
1.0
 43
1.0
 50
0.0
  0
INSERT
  8
txt
  2
D9500
 10
35.596171
 20
11.212722
 41
1.0
 42
1.0
 43
1.0
 50
0.0
  0
INSERT
  8
txt
  2
D9500
 10
15.080030
 20
13.927928
 41
1.0
 42
1.0
 43
1.0
 50
0.0
  0
INSERT
  8
txt
  2
D9500
 10
12.939126
 20
16.467933
 41
1.0
 42
1.0
 43
1.0
 50
0.0
  0
INSERT
  8
txt
  2
D9500
 10
21.639543
 20
20.560341
 41
1.0
 42
1.0
 43
1.0
 50
0.0
  0
INSERT
  8
txt
  2
D9500
 10
27.433155
 20
36.000072
 41
1.0
 42
1.0
 43
1.0
 50
0.0
  0
INSERT
  8
txt
  2
D9500
 10
9.383719
 20
29.962960
 41
1.0
 42
1.0
 43
1.0
 50
0.0
  0
INSERT
  8
txt
  2
D9501
 10
24.787250
 20
12.246424
 41
1.0
 42
1.0
 43
1.0
 50
0.0
  0
INSERT
  8
txt
  2
D9501
 10
24.787250
 20
25.622551
 41
1.0
 42
1.0
 43
1.0
 50
0.0
  0
INSERT
  8
txt
  2
D9502
 10
3.039506
 20
10.006920
 41
1.0
 42
1.0
 43
1.0
 50
0.0
  0
INSERT
  8
txt
  2
D9502
 10
3.039506
 20
25.906952
 41
1.0
 42
1.0
 43
1.0
 50
0.0
  0
INSERT
  8
txt
  2
D9503
 10
39.879880
 20
31.449763
 41
1.0
 42
1.0
 43
1.0
 50
0.0
  0
INSERT
  8
txt
  2
D9504
 10
32.315865
 20
31.449763
 41
1.0
 42
1.0
 43
1.0
 50
0.0
  0
INSERT
  8
txt
  2
D9505
 10
3.500007
 20
3.500007
 41
1.0
 42
1.0
 43
1.0
 50
0.0
  0
INSERT
  8
txt
  2
D9505
 10
81.500163
 20
3.500007
 41
1.0
 42
1.0
 43
1.0
 50
0.0
  0
INSERT
  8
txt
  2
D9505
 10
81.500163
 20
36.000072
 41
1.0
 42
1.0
 43
1.0
 50
0.0
  0
INSERT
  8
txt
  2
D9505
 10
3.500007
 20
36.000072
 41
1.0
 42
1.0
 43
1.0
 50
0.0
  0
ENDSEC
  0
EOF
