  0
SECTION
  2
HEADER
  9
$EXTMIN
 10
-0.025400
 20
-0.025400
  9
$EXTMAX
 10
85.013800
 20
39.522400
  9
$LIMMIN
 10
-0.025400
 20
-0.025400
  9
$LIMMAX
 10
85.013800
 20
39.522400
  9
$FILLMODE
 70
  1
  0
ENDSEC
  0
SECTION
  2
TABLES
  0
TABLE
  2
LTYPE
 70
  1
  0
LTYPE
  2
CONTINUOUS
 70
 64
  3
Solid line
 72
 65
 73
  0
 40
0.0
  0
ENDTAB
  0
TABLE
  2
LAYER
 70
 1
  0
LAYER
  2
0
 70
  0
 62
7
  6
CONTINUOUS
  0
LAYER
  2
gm
 70
  0
 62
1
  6
CONTINUOUS
  0
ENDTAB
  0
TABLE
  2
STYLE
 70
  1
  0
STYLE
  2
STANDARD
 70
  0
 40
0.0
 41
1.0
 50
0.0
 71
  0
 42
0.2
  3
txt
  4

  0
ENDTAB
  0
ENDSEC
  0
SECTION
  2
BLOCKS
  0
BLOCK
  8
0
  2
D10
 70
64
 10
0.0
 20
0.0
  3
D10
  0
CIRCLE
  8
0
 10
0.000000
 20
0.000000
 40
0.012700
 0
ENDBLK
  8
0
  0
BLOCK
  8
0
  2
D1010
 70
64
 10
0.0
 20
0.0
  3
D1010
 0
ENDBLK
  8
0
  0
ENDSEC
  0
SECTION
  2
ENTITIES
  0
POLYLINE
  8
gm
 62
1
 40
0.000000
 41
0.000000
 66
  1
  0
VERTEX
  8
gm
 10
29.995360
 20
22.503045
  0
VERTEX
  8
gm
 10
41.260883
 20
22.503045
  0
VERTEX
  8
gm
 10
41.260883
 20
15.024930
  0
VERTEX
  8
gm
 10
29.995360
 20
15.024930
  0
VERTEX
  8
gm
 10
29.995360
 20
22.503045
  0
SEQEND
  8
gm
  0
POLYLINE
  8
gm
 62
1
 40
0.000000
 41
0.000000
 66
  1
  0
VERTEX
  8
gm
 10
0.000000
 20
0.000000
  0
VERTEX
  8
gm
 10
0.000000
 20
39.500079
  0
VERTEX
  8
gm
 10
85.000170
 20
39.500079
  0
VERTEX
  8
gm
 10
85.000170
 20
0.000000
  0
VERTEX
  8
gm
 10
0.000000
 20
0.000000
  0
SEQEND
  8
gm
  0
ENDSEC
  0
EOF
